<?xml version="1.0" encoding="utf-8"?>
<!-- Generator: Adobe Illustrator 16.0.0, SVG Export Plug-In . SVG Version: 6.00 Build 0)  -->
<!DOCTYPE svg PUBLIC "-//W3C//DTD SVG 1.1//EN" "http://www.w3.org/Graphics/SVG/1.1/DTD/svg11.dtd">
<svg version="1.1" id="chase" xmlns="http://www.w3.org/2000/svg" xmlns:xlink="http://www.w3.org/1999/xlink" x="0px" y="0px"
	 width="218.882px" height="40.678px" viewBox="0 0 218.882 40.678" enable-background="new 0 0 218.882 40.678"
	 xml:space="preserve">
<g>
	<defs>
		<rect id="SVGID_1_" y="0" width="218.882" height="40.678"/>
	</defs>
	<clipPath id="SVGID_2_">
		<use xlink:href="#SVGID_1_"  overflow="visible"/>
	</clipPath>
	<g clip-path="url(#SVGID_2_)">
		<path id="logo-ne_1_" fill="#DBDBDD" d="M190.776,0.482c-0.774,0-1.401,0.627-1.401,1.401v9.831h25.966L203.516,0.483
			L190.776,0.482"/>
		<path id="logo-se_1_" fill="#DBDBDD" d="M216.292,14.688c0-0.775-0.623-1.402-1.403-1.402h-9.828v25.97l11.227-11.831
			L216.292,14.688"/>
		<path id="logo-sw_1_" fill="#DBDBDD" d="M202.082,40.197c0.774,0,1.401-0.628,1.401-1.404v-9.827h-25.97l11.829,11.229
			L202.082,40.197"/>
		<path id="logo-nw_1_" fill="#DBDBDD" d="M176.566,25.993c0,0.773,0.627,1.405,1.403,1.405h9.826V1.427l-11.228,11.828
			L176.566,25.993"/>
		<path id="H_1_" fill="#DBDBDD" d="M57.534,5.222v11.994H40.826V5.222L34.74,5.218v30.24h6.085V22.465h16.708v12.991h6.096V5.222
			H57.534"/>
		<path id="E_1_" fill="#DBDBDD" d="M138.491,5.222v30.226h26.698l-3.382-5.321h-17.214v-7.663h16.67v-5.125h-16.67v-6.92h17.187
			l3.312-5.197L138.491,5.222"/>
		<path id="C_1_" fill="#DBDBDD" d="M12.119,5.215c-6.33,0-9.528,3.849-9.528,9.448v11.289c0,6.479,4.122,9.505,9.497,9.505
			l19.094-0.002l-3.54-5.527H13.268c-3.055,0-4.385-1.104-4.385-4.521v-10.24c0-3.305,1.12-4.593,4.465-4.593h14.444l3.396-5.358
			H12.119"/>
		<path id="S_1_" fill="#DBDBDD" d="M111.787,5.207c-3.655,0-7.404,2.198-7.404,7.85v1.452c0,5.893,3.604,8.141,7.214,8.156h12.661
			c1.316,0,2.384,0.219,2.384,2.441l-0.002,2.567c-0.034,1.996-1.029,2.453-2.427,2.453h-16.657l-3.413,5.321h20.461
			c4.936,0,8.285-2.455,8.285-8.124V25.24c0-5.483-3.113-8.072-7.939-8.072h-12.09c-1.339,0-2.273-0.366-2.273-2.352v-2.091
			c0-1.69,0.641-2.307,2.201-2.307l15.863-0.006l3.315-5.212L111.787,5.207"/>
		<path id="A_1_" fill="#DBDBDD" d="M81.309,5.222L66.971,35.454h6.776l2.792-6.243h15.582l2.782,6.243h6.808L87.339,5.222H81.309z
			 M84.316,11.499l5.51,12.566H78.842L84.316,11.499"/>
	</g>
</g>
</svg>
