<?xml version="1.0" encoding="utf-8"?>
<!-- Generator: Adobe Illustrator 16.0.0, SVG Export Plug-In . SVG Version: 6.00 Build 0)  -->
<!DOCTYPE svg PUBLIC "-//W3C//DTD SVG 1.1//EN" "http://www.w3.org/Graphics/SVG/1.1/DTD/svg11.dtd">
<svg version="1.1" id="Layer_1" xmlns="http://www.w3.org/2000/svg" xmlns:xlink="http://www.w3.org/1999/xlink" x="0px" y="0px"
	 width="36px" height="36px" viewBox="0 0 36 36" enable-background="new 0 0 36 36" xml:space="preserve">
<g>
	<defs>
		<rect id="SVGID_1_" width="36" height="36"/>
	</defs>
	<clipPath id="SVGID_2_">
		<use xlink:href="#SVGID_1_"  overflow="visible"/>
	</clipPath>
	<g clip-path="url(#SVGID_2_)">
		<path fill="#DADADA" d="M18,35.508C8.346,35.508,0.491,27.654,0.491,18C0.491,8.346,8.346,0.492,18,0.492S35.508,8.346,35.508,18
			C35.508,27.654,27.654,35.508,18,35.508z M18,1.492C8.897,1.492,1.491,8.897,1.491,18c0,9.102,7.406,16.508,16.509,16.508
			c9.103,0,16.508-7.406,16.508-16.508C34.508,8.897,27.103,1.492,18,1.492z"/>
	</g>
	<g clip-path="url(#SVGID_2_)">
		<g>
			<g>
				<path fill="#DADADA" d="M26.902,24.221H9.097V12.546h17.805V24.221z M10.284,23.033h15.432v-9.299H10.284V23.033z"/>
			</g>
		</g>
		<g>
			<polygon fill="#DADADA" points="17.987,19.105 9.544,13.847 10.199,12.795 18.011,17.662 25.818,13.147 26.438,14.219 			"/>
		</g>
	</g>
</g>
</svg>
