<?xml version="1.0" encoding="utf-8"?>
<!-- Generator: Adobe Illustrator 16.0.0, SVG Export Plug-In . SVG Version: 6.00 Build 0)  -->
<!DOCTYPE svg PUBLIC "-//W3C//DTD SVG 1.1//EN" "http://www.w3.org/Graphics/SVG/1.1/DTD/svg11.dtd">
<svg version="1.1" id="Google_x2B_" xmlns="http://www.w3.org/2000/svg" xmlns:xlink="http://www.w3.org/1999/xlink" x="0px"
	 y="0px" width="199px" height="72.74px" viewBox="0 0 199 72.74" enable-background="new 0 0 199 72.74" xml:space="preserve">
<g>
	<defs>
		<rect id="SVGID_1_" width="199" height="72.74"/>
	</defs>
	<clipPath id="SVGID_2_">
		<use xlink:href="#SVGID_1_"  overflow="visible"/>
	</clipPath>
	<g clip-path="url(#SVGID_2_)">
		<path fill-rule="evenodd" clip-rule="evenodd" fill="#DBDBDD" d="M194.582,28.254c1.014-0.42,1.095-0.495,0.721-1.564
			c-2.143-6.113-10.205-9.415-17.07-6.55c-5.417,2.258-9.338,7.985-9.338,14.389c0,8.63,6.229,16.305,14.69,16.305
			c3.88,0,6.638-0.537,9.095-2.095c0.525-0.489,3.492-2.862,3.521-3.37c0.006-0.118-0.418,0.25-1.063,0.608
			c-1.912,1.005-4.778,1.392-7.026,1.432c-4.549,0.083-8.182-3.017-10.551-6.695c-1.524-2.369-2.511-5.077-2.755-7.984
			c-0.377-4.469,0.716-9.608,5.763-10.87c3.358-0.839,6.539,1.042,7.775,4.276c0.562,1.468,0.222,2.231-1.136,2.791L175.066,34
			l4.139,0.265C184.135,32.219,189.653,30.3,194.582,28.254L194.582,28.254z"/>
		<path fill-rule="evenodd" clip-rule="evenodd" fill="#DBDBDD" d="M157.201,3.366c3.081,0,5.981,0,9.063,0
			c-1.26,0.818-1.684,1.156-2.228,2.015c-0.388,0.615-0.488,1.783-0.558,2.835c-0.528,12.104-0.205,24.3-0.283,36.405
			c0.052,3.3,1.347,2.912,5.638,2.786c-0.647,0.549-1.695,1.632-2.509,2.099c-3.871,0-7.565-0.083-11.437-0.083
			c1.459-1.505,2.206-2.476,2.105-6.241c0.077-12.65-0.422-24.79,0.348-36.973c-1.814,0.052-3.463,0.026-5.277,0.078
			C153.777,5.403,155.397,4.159,157.201,3.366L157.201,3.366z"/>
		<path fill-rule="evenodd" clip-rule="evenodd" fill="#DBDBDD" d="M140.814,51.577c0.651,0.477,1.331,0.942,2.03,1.384
			c3.809,2.411,5.022,5.36,4.713,8.082c-0.374,3.282-3.521,5.868-8.912,6.195c-5.756,0.35-13.505-1.93-12.069-9.5
			c0.764-4.033,6.115-6.116,10.541-6.263C138.341,51.434,139.588,51.536,140.814,51.577L140.814,51.577z M153.827,20.065
			l-3.876,2.509h-4.413c1.864,1.302,3.293,3.177,4.079,5.267c0.838,2.226,0.954,4.693,0.104,6.964
			c-0.805,2.142-2.434,3.987-4.827,5.388c-1.359,0.797-2.048,1.807-2.123,2.776c-0.222,2.827,3.233,4.883,5.229,6.378
			c4.372,3.272,6.079,8.641,3.186,13.827c-2.763,4.952-9.344,7.162-16.333,7.187c-8.681-0.039-14.156-4.017-14.445-9.432
			c-0.373-6.996,6.807-10.327,13.295-11.086c1.816-0.213,3.438-0.179,4.966-0.07c-2.298-1.511-3.154-4.592-1.983-6.648
			c0.305-0.536,0.111-0.352-0.466-0.264c-5.307,0.802-10.772-2.662-12.052-7.896c-0.649-2.657-0.245-5.432,0.768-7.606
			c2.196-4.718,7.081-7.34,12.503-7.34C143.078,20.019,148.298,20.021,153.827,20.065L153.827,20.065z M144.07,31.573
			c0.689,4.19-0.374,8.163-4.162,9.21c-3.877,1.072-8.164-1.944-9.545-7.344c-1.511-5.922,0.053-9.683,3.705-10.818
			C138.393,21.276,143.015,25.178,144.07,31.573L144.07,31.573z"/>
		<path fill-rule="evenodd" clip-rule="evenodd" fill="#DBDBDD" d="M104.521,19.19c10.403,0,15.83,6.916,16.314,15.017
			c0.481,8.072-6.173,15.293-14.318,16.159c-9.794,1.039-18.348-5.709-18.348-15.549C88.169,26.21,95.515,19.19,104.521,19.19
			L104.521,19.19z M114.352,35.246c0.597,5.937-1.396,11.451-6.725,12.683c-5.451,1.262-11.229-3.26-12.673-10.943
			c-1.584-8.428,1.033-13.979,6.18-15.343C107.228,20.026,113.443,26.18,114.352,35.246L114.352,35.246z"/>
		<path fill-rule="evenodd" clip-rule="evenodd" fill="#DBDBDD" d="M68.865,19.19c10.525,0,16.016,6.916,16.508,15.017
			c0.487,8.072-6.247,15.293-14.488,16.159c-9.91,1.039-18.564-5.709-18.564-15.549C52.32,26.21,59.752,19.19,68.865,19.19
			L68.865,19.19z M78.811,35.246c0.603,5.937-1.413,11.451-6.803,12.683c-5.516,1.262-11.362-3.26-12.823-10.943
			c-1.604-8.428,1.045-13.979,6.253-15.343C71.606,20.026,77.89,26.18,78.811,35.246L78.811,35.246z"/>
		<path fill-rule="evenodd" clip-rule="evenodd" fill="#DBDBDD" d="M42.708,14.86l4.732-4.824
			C39.409,3.388,25.632,2.514,16.506,7.13C8.567,11.145,2.794,19.116,2.511,28.02c-0.298,9.371,5.149,16.783,10.677,20.511
			c9.123,6.152,24.94,4.783,34.469-0.027l-0.002-0.893h0.001v-9.821l2.219-2.597H35.994l-5.142,2.895l9.984-0.297
			c0,2.796,0,5.859,0,8.657c0,1.228,0.016,1.425-2.009,2.08c-2.849,0.748-6.064,0.895-9.002,0.649
			c-9.97-0.831-17.568-8.708-19.369-18.535C8.749,21.318,13.145,12.499,20.578,8.86c3.63-1.776,7.985-2.611,12.706-1.1
			c2.959,0.946,5.646,2.653,7.988,5.004l-1.631,2.966L42.708,14.86L42.708,14.86z"/>
	</g>
</g>
</svg>
