<?xml version="1.0" encoding="UTF-8"?>
<svg width="30px" height="30px" viewBox="0 0 30 30" version="1.1" xmlns="http://www.w3.org/2000/svg" xmlns:xlink="http://www.w3.org/1999/xlink">
    <!-- Generator: Sketch 50 (54983) - http://www.bohemiancoding.com/sketch -->
    <title>icon-30-black-truck</title>
    <desc>Created with Sketch.</desc>
    <defs>
        <path d="M15,7 C15.5522847,7 16,7.44771525 16,8 C16,8.33333333 16,9 16,10 L22,10 C22.6666667,10 23.1666667,10.3333333 23.5,11 L26,16.0029294 L26,20.9970707 C26,21.5509732 25.5491863,22 24.9995679,22 L23.8292943,22 C23.4174579,23.1651924 22.3062189,24 21,24 C19.6937811,24 18.5825421,23.1651924 18.1707057,22 L12.8292943,22 C12.4174579,23.1651924 11.3062189,24 10,24 C8.34314575,24 7,22.6568542 7,21 C7,19.3431458 8.34314575,18 10,18 C11.3062189,18 12.4174579,18.8348076 12.8292943,20 L14,20 L14,9.0024414 L5,9 C4.44771525,9 4,8.55228475 4,8 C4,7.44771525 4.44771525,7 5,7 L15,7 Z M21,18 C22.3062189,18 23.4174579,18.8348077 23.8292943,20 L24,20 L24,16 L22,12 L16,12 L16,20 L18.1707057,20 C18.5825421,18.8348077 19.6937811,18 21,18 Z M2,16 C2,15.4477152 2.44677133,15 3.00138005,15 L7.49861995,15 C8.05166685,15 8.5,15.4438648 8.5,16 C8.5,16.5522847 8.0532287,17 7.49861995,17 L3.00138005,17 C2.44833313,17 2,16.5561352 2,16 Z M0,12 C0,11.4477152 0.44725688,11 0.99703014,11 L7.00296985,11 C7.5536144,11 8,11.4438648 8,12 C8,12.5522848 7.5527431,13 7.00296985,13 L0.99703014,13 C0.4463856,13 0,12.5561352 0,12 Z M21,22 C21.5522847,22 22,21.5522847 22,21 C22,20.4477153 21.5522847,20 21,20 C20.4477153,20 20,20.4477153 20,21 C20,21.5522847 20.4477153,22 21,22 Z M10,22 C10.5522848,22 11,21.5522847 11,21 C11,20.4477153 10.5522848,20 10,20 C9.44771525,20 9,20.4477153 9,21 C9,21.5522847 9.44771525,22 10,22 Z" id="path-1"></path>
    </defs>
    <g id="Icons" stroke="none" stroke-width="1" fill="none" fill-rule="evenodd">
        <g id="Icons/Truck">
            <mask id="mask-2" fill="white">
                <use xlink:href="#path-1"></use>
            </mask>
            <use id="Combined-Shape" fill="#000000" fill-rule="nonzero" xlink:href="#path-1"></use>
            <g id="Colors/Black" mask="url(#mask-2)" fill="#000000">
                <rect id="Color" x="0" y="0" width="30" height="30"></rect>
            </g>
        </g>
    </g>
</svg>