<?xml version="1.0" encoding="UTF-8" standalone="no"?>
<svg width="36px" height="36px" viewBox="0 0 36 36" version="1.1" xmlns="http://www.w3.org/2000/svg" xmlns:xlink="http://www.w3.org/1999/xlink" xmlns:sketch="http://www.bohemiancoding.com/sketch/ns">
    <!-- Generator: Sketch 3.5.1 (25234) - http://www.bohemiancoding.com/sketch -->
    <title>Artboard 1</title>
    <desc>Created with Sketch.</desc>
    <defs>
        <path id="path-1" d="M0,0.84 L15.065,0.84 L15.065,13.193 L0,13.193 L0,0.84 Z"></path>
    </defs>
    <g id="Page-1" stroke="none" stroke-width="1" fill="none" fill-rule="evenodd" sketch:type="MSPage">
        <g id="Artboard-1" sketch:type="MSArtboardGroup" transform="translate(-2225.000000, -3100.000000)">
            <g id="grey-copy" sketch:type="MSLayerGroup" transform="translate(1910.478045, 2975.029620)"></g>
            <g id="pinterest_grey-copy" sketch:type="MSLayerGroup" transform="translate(2225.174000, 3100.602898)" fill="#DFDFDA">
                <g id="Clipped" sketch:type="MSShapeGroup">
                    <path d="M17.7980234,35.5489105 C8.14402344,35.5489105 0.288023437,27.6949105 0.288023437,18.0409105 C0.288023437,8.38691048 8.14502344,0.532910479 17.7980234,0.532910479 C27.4510234,0.532910479 35.3060234,8.38691048 35.3060234,18.0409105 C35.3060234,27.6949105 27.4520234,35.5489105 17.7980234,35.5489105 L17.7980234,35.5489105 Z M1.28802344,18.0409105 C1.28802344,27.1429105 8.69502344,34.5489105 17.7980234,34.5489105 C26.9010234,34.5489105 34.3060234,27.1429105 34.3060234,18.0409105 C34.3060234,8.93791048 26.9010234,1.53291048 17.7980234,1.53291048 C8.69502344,1.53291048 1.28802344,8.93791048 1.28802344,18.0409105 Z" id="Shape-Copy-7"></path>
                </g>
            </g>
            <g id="Buttons" sketch:type="MSLayerGroup" transform="translate(272.000000, 1664.000000)"></g>
            <g id="Typography" sketch:type="MSLayerGroup" transform="translate(203.000000, 1097.000000)"></g>
            <g id="Imported-Layers" sketch:type="MSLayerGroup" transform="translate(2114.174000, 3063.205797)">
                <g id="Group-4-Copy-2" transform="translate(121.298023, 48.897910)">
                    <mask id="mask-2" sketch:name="Clip 3" fill="white">
                        <use xlink:href="#path-1"></use>
                    </mask>
                    <g id="Clip-3"></g>
                    <path d="M15.016,4.814 C14.959,3.755 14.511,2.761 13.754,2.015 C12.985,1.257 11.981,0.84 10.927,0.84 C9.349,0.84 8.231,2.059 7.631,2.714 C7.597,2.751 7.56,2.791 7.524,2.83 C7.505,2.808 7.486,2.786 7.468,2.766 C6.919,2.14 5.777,0.84 4.096,0.84 C3.042,0.84 2.038,1.257 1.27,2.015 C0.512,2.761 0.064,3.755 0.007,4.814 C-0.049,5.867 0.219,6.78 0.875,7.776 C1.463,8.668 2.994,10.079 4.127,11.017 C5.291,11.98 6.825,13.128 7.518,13.128 C8.222,13.128 9.75,11.982 10.908,11.021 C12.032,10.088 13.555,8.678 14.148,7.776 C14.59,7.104 15.088,6.161 15.016,4.814 L15.016,4.814 Z M13.393,7.279 C12.962,7.935 11.746,9.147 10.368,10.295 C8.725,11.663 7.752,12.203 7.519,12.224 C7.286,12.2 6.311,11.655 4.659,10.284 C3.273,9.133 2.056,7.925 1.63,7.279 C1.087,6.455 0.865,5.71 0.91,4.863 C1.002,3.143 2.431,1.744 4.096,1.744 C5.368,1.744 6.292,2.796 6.789,3.362 C7.081,3.694 7.241,3.877 7.512,3.877 C7.791,3.877 7.971,3.681 8.298,3.325 C8.84,2.733 9.746,1.744 10.927,1.744 C12.592,1.744 14.021,3.143 14.113,4.863 C14.159,5.719 13.944,6.442 13.393,7.279 L13.393,7.279 Z" id="Fill-2" fill="#464646" sketch:type="MSShapeGroup" mask="url(#mask-2)"></path>
                </g>
            </g>
        </g>
    </g>
</svg>