<svg xmlns="http://www.w3.org/2000/svg" xmlns:xlink="http://www.w3.org/1999/xlink" width="65.582" height="52.977" viewBox="0 0 65.582 52.977"><defs><path id="a" d="M0 0h65.582v52.977H0z"/></defs><clipPath id="b"><use xlink:href="#a" overflow="visible"/></clipPath><g clip-path="url(#b)"><path fill="none" d="M44.64 24.167c0 1.354-.848 2.066-1.698 2.343v9.886l.077 3.896h-9.41c-3.094 0-3.396.936-3.4.944l.006 1.602h27.152v-3.18c-.007 0-.112-.48-1.13-.83-1.645-.57-2.895-1.773-3.216-2.104-.326-.226-1.093-.895-1.374-2.298l-1.096-8.78-1.06-6.272c-.156-.344-.224-.822.013-1.25.274-.49.82-.74 1.615-.74h1.154v-.85l-7.635.022v7.61z"/><path fill="none" d="M42.94 24.167V14.84h9.334c.718 0 1.226.213 1.512.633.207.307.186.648.186.92v.99h3.94c.995 0 3.2-1.15 4.583-3.236.78-1.174 1.522-3.026.615-5.174-1.9-4.51-5.793-4.33-5.955-4.316h-24.51c-.854 0-.934.16-1.146.585-.463.923-1.612 1.09-1.742 1.105l-.105.008H18.337c-4.937 0-5.086 2.456-5.09 2.56l-.03.817-2.043.018H2.48c-.784 0-.784.156-.784.627.07.114.51.203.773.22h10.778v.848c0 .432.147 4.242 4.24 4.242h11.893c1.03 0 1.818.596 2.165 1.633.07.053.442.103.724.07l.1-.006h6.33v5.425c0 .975 2.034 2.103 3.41 2.13l-.002.078c.38-.006.833-.23.833-.85zM30.217 44.536h27.15v6.785h-27.15z"/><path fill="#95B4DF" d="M53.972 17.384v-.992c0-.27.02-.612-.186-.92-.286-.42-.794-.632-1.512-.632H42.94v9.327c0 .623-.45.845-.832.852l-.032 1.618c-.26-.005-.542-.038-.83-.095v9.87l.04 2.183H33.61c-4.95 0-5.09 2.304-5.09 2.567V53.02h30.543V39.657c0-.168-.066-1.668-2.268-2.434-1.464-.51-2.595-1.72-2.604-1.73L54 35.338c-.022-.013-.503-.327-.678-1.184l-1.092-8.755-1.067-6.317h1.964v-1.697h.848zm3.395 33.937h-27.15v-6.784h27.15v6.785zm-5.093-33.936H51.12c-.796 0-1.34.25-1.615.742-.236.427-.17.905-.014 1.25l1.062 6.27 1.096 8.78c.28 1.404 1.048 2.073 1.374 2.3.32.33 1.57 1.53 3.217 2.102 1.016.353 1.12.83 1.127.83v3.18H30.216l-.005-1.6c.003-.01.306-.945 3.4-.945h9.408l-.077-3.896V26.51c.852-.275 1.7-.987 1.7-2.342v-7.61l7.634-.02v.846z"/><path fill="#95B4DF" d="M64.675 8.314c-2.38-5.657-7.587-5.352-7.576-5.353H32.643c-1.755 0-2.277.752-2.66 1.52-.037.056-.226.146-.397.178h-11.25c-4.882 0-6.252 2.154-6.637 3.394H2.48C.32 8.052 0 9.51 0 10.378c0 .475.175.9.506 1.228.677.67 1.777.697 1.973.688h9.133c.304 2.12 1.768 5.09 5.877 5.09h11.892c.217 0 .407.036.553.473.38 1.137 1.713 1.305 2.483 1.225h4.585v3.727c0 1.882 2.3 3.357 4.243 3.732V25.02h.85l.013-.002.002-.08c-1.377-.026-3.41-1.154-3.41-2.13v-5.424H32.37l-.1.006c-.282.033-.654-.017-.725-.07-.347-1.038-1.136-1.633-2.164-1.633H17.49c-4.094 0-4.24-3.81-4.24-4.242v-.85H2.47c-.264-.015-.704-.104-.773-.218 0-.47 0-.627.783-.627h8.695l2.042-.018.03-.817c.005-.104.154-2.56 5.09-2.56h11.316l.105-.008c.13-.014 1.28-.182 1.74-1.105.213-.425.293-.584 1.146-.584h24.512c.162-.015 4.056-.195 5.955 4.315.908 2.148.167 4-.614 5.174-1.383 2.085-3.588 3.237-4.582 3.237h-3.94v1.698h3.94c1.644 0 4.336-1.495 5.997-3.997 1.425-2.15 1.698-4.554.765-6.77z"/><path fill="#95B4DF" d="M53.124 17.384h.848v1.698h-.848zM42.108 25.018l-.014.002h-.85v1.522c.29.058.57.09.83.095l.034-1.62z"/></g></svg>