<?xml version="1.0" encoding="UTF-8"?>
<svg width="52px" height="32px" viewBox="0 0 52 32" version="1.1" xmlns="http://www.w3.org/2000/svg" xmlns:xlink="http://www.w3.org/1999/xlink">
    <!-- Generator: Sketch 51.2 (57519) - http://www.bohemiancoding.com/sketch -->
    <title>mkquartz-tile-and-stone-logo</title>
    <desc>Created with Sketch.</desc>
    <defs></defs>
    <g id="Page-1" stroke="none" stroke-width="1" fill="none" fill-rule="evenodd">
        <g id="mkquartz-tile-and-stone-logo" fill-rule="nonzero">
            <path d="M1.62718299,0 L50.3728181,0 C51.272423,0 52,0.744017825 52,1.66267317 L52,30.3383602 C52,31.2590822 51.2714111,32 50.3728181,32 L1.62718299,32 C0.728589979,32 1.05135945e-06,31.2570155 1.05135945e-06,30.3383602 L1.05135945e-06,1.66267317 C-0.00101087771,0.744017825 0.728589979,0 1.62718299,0 Z" id="Shape" fill="#000000"></path>
            <g id="Group" transform="translate(6.000000, 4.000000)" fill="#FFFFFF">
                <path d="M2.058,0.376 L15.525,0.376 L15.525,2.836 L12.436,2.836 C12.436,2.836 10.911,3.294 10.891,4.409 L10.892,8.876 C10.892,8.876 11.016,9.944 12.808,10.114 L15.525,10.114 L15.525,10.937 L2.181,10.937 C2.181,10.937 0.118,11.073 0.248,8.876 L0.248,2.198 C0.249,2.198 0.084,0.621 2.058,0.376" id="Shape"></path>
                <path d="M37.875,23.341 L24.407,23.341 L24.407,20.881 L27.497,20.881 C27.497,20.881 29.023,20.426 29.043,19.309 L29.039,14.843 C29.039,14.843 28.917,13.776 27.125,13.606 L24.407,13.606 L24.407,12.784 L37.751,12.784 C37.751,12.784 39.815,12.647 39.683,14.845 L39.683,21.525 C39.683,21.521 39.849,23.1 37.875,23.341" id="Shape"></path>
                <path d="M24.396,2.927 C23.195,2.927 23.287,4.682 23.287,4.682 L23.289,12.001 L23.287,12.199 L23.286,20.538 C23.334,23.076 20.957,23.343 20.957,23.343 L16.156,23.343 L15.527,23.343 L2.059,23.343 C0.086,23.1 0.25,21.521 0.25,21.521 L0.25,14.842 C0.119,12.646 2.183,12.781 2.183,12.781 L15.528,12.781 L15.528,13.602 L12.81,13.602 C11.017,13.772 10.894,14.84 10.894,14.84 L10.892,19.307 C10.911,20.423 12.438,20.878 12.438,20.878 L15.527,20.878 L16.156,20.887 C17.355,20.887 17.262,19.035 17.262,19.035 L17.262,12.196 L17.262,12 L17.263,3.18 C17.215,0.643 19.592,0.375 19.592,0.375 L24.396,0.375 L24.46,0.375 L37.875,0.375 C39.848,0.62 39.683,2.197 39.683,2.197 L39.683,8.876 C39.815,11.072 37.751,10.936 37.751,10.936 L24.407,10.936 L24.407,10.114 L27.125,10.114 C28.917,9.945 29.041,8.877 29.041,8.877 L29.042,4.41 C29.023,3.294 27.497,2.923 27.497,2.923 L24.46,2.923 L24.396,2.927 Z" id="Shape"></path>
            </g>
        </g>
    </g>
</svg>