<svg xmlns="http://www.w3.org/2000/svg" xmlns:xlink="http://www.w3.org/1999/xlink" width="52.977" height="52.977" viewBox="0 0 52.977 52.977"><defs><path id="a" d="M0 0h52.977v52.977H0z"/></defs><clipPath id="b"><use xlink:href="#a" overflow="visible"/></clipPath><g clip-path="url(#b)"><path fill="#95B4DF" d="M39.6 50.694c-.39.387-1.02.39-1.41 0L2.284 14.787c-.39-.39-.39-1.02 0-1.41l9.152-9.152-1.408-1.408L.875 11.97C.31 12.532 0 13.282 0 14.08c0 .798.31 1.548.875 2.112l35.907 35.91c.582.58 1.348.872 2.112.872s1.53-.292 2.112-.873l9.153-9.154-1.41-1.41-9.15 9.154zM6.508 13.378l1.407 1.41 7.04-7.043-1.407-1.408-7.04 7.04zm6.336.705l1.408 1.407 4.225-4.226-1.408-1.407-4.226 4.226zm.704 6.335l1.408 1.408 7.04-7.04-1.407-1.408-7.042 7.04zm6.337.704l1.408 1.408 4.225-4.225-1.408-1.407-4.225 4.224zm.704 6.337l1.407 1.407 7.04-7.04-1.408-1.41-7.04 7.042zm6.335.703l1.408 1.408 4.226-4.224-1.41-1.408-4.225 4.225zm.704 6.337l1.407 1.408 7.04-7.04-1.407-1.41-7.04 7.042zm6.336.704l1.408 1.408 4.225-4.224-1.41-1.408-4.224 4.224zm.704 6.337l1.408 1.41 7.04-7.042-1.407-1.408-7.04 7.04zm11.97-2.11l-1.408-1.41-4.225 4.226 1.408 1.408 4.224-4.225zM12.843 0l-1.408 1.408L51.57 41.54l1.407-1.407L12.844 0z"/></g></svg>