<svg xmlns="http://www.w3.org/2000/svg" xmlns:xlink="http://www.w3.org/1999/xlink" width="54.977" height="52.977" viewBox="0 0 54.977 52.977"><defs><path id="a" d="M0 0h54.977v52.977H0z"/></defs><clipPath id="b"><use xlink:href="#a" overflow="visible"/></clipPath><g clip-path="url(#b)"><path fill="#95B4DF" d="M53.45 15.337c-.188-.246-.478-.39-.784-.39h-42.55L7.503 5.82c0-.016.007-.03.006-.046-.035-.553-.505-.978-1.06-.938l-4.46.282c-.552.034-.97.512-.935 1.067.033.53.473.942.995.942.02 0 .042 0 .064-.003l3.62-.23 8.18 28.68.436 1.613c.124.435.52.735.97.735h32.29c.468 0 .874-.322.983-.778l5.045-20.93c.073-.305.003-.63-.187-.877zm-6.636 20.56H16.082l-.08-.282.02-.007-5.34-18.678h40.995l-4.863 18.967zM20.142 39.98c-2.684 0-4.868 2.198-4.868 4.9 0 2.706 2.184 4.905 4.868 4.905s4.868-2.2 4.868-4.904c0-2.7-2.184-4.9-4.868-4.9zm0 7.794c-1.583 0-2.87-1.3-2.87-2.893s1.287-2.89 2.87-2.89c1.583 0 2.87 1.297 2.87 2.89s-1.287 2.894-2.87 2.894zm21.97-7.795c-2.687 0-4.87 2.198-4.87 4.9 0 2.706 2.184 4.905 4.87 4.905 2.683 0 4.866-2.2 4.866-4.904 0-2.7-2.183-4.9-4.867-4.9zm0 7.794c-1.585 0-2.872-1.3-2.872-2.893s1.287-2.89 2.87-2.89c1.583 0 2.872 1.297 2.872 2.89s-1.29 2.894-2.87 2.894z"/></g></svg>