<?xml version="1.0" encoding="UTF-8" standalone="no"?>
<svg width="36px" height="36px" viewBox="0 0 36 36" version="1.1" xmlns="http://www.w3.org/2000/svg" xmlns:xlink="http://www.w3.org/1999/xlink" xmlns:sketch="http://www.bohemiancoding.com/sketch/ns">
    <!-- Generator: Sketch 3.3.3 (12072) - http://www.bohemiancoding.com/sketch -->
    <title>Share_circle</title>
    <desc>Created with Sketch.</desc>
    <defs>
        <path id="path-1" d="M0.06,0 L15,0 L15,11.94 L0.06,11.94 L0.06,0 Z"></path>
    </defs>
    <g id="Page-1" stroke="none" stroke-width="1" fill="none" fill-rule="evenodd" sketch:type="MSPage">
        <g id="Artboard-1" sketch:type="MSArtboardGroup" transform="translate(-2306.000000, -3101.000000)">
            <g id="pinterest_grey-copy" sketch:type="MSLayerGroup" transform="translate(2255.174000, 3100.602898)">
                <g id="Clipped">
                    <g id="Share_circle" transform="translate(51.000000, 0.000000)">
                        <path d="M17.7980234,35.5489105 C8.14402344,35.5489105 0.288023437,27.6949105 0.288023437,18.0409105 C0.288023437,8.38691048 8.14502344,0.532910479 17.7980234,0.532910479 C27.4510234,0.532910479 35.3060234,8.38691048 35.3060234,18.0409105 C35.3060234,27.6949105 27.4520234,35.5489105 17.7980234,35.5489105 L17.7980234,35.5489105 Z M1.28802344,18.0409105 C1.28802344,27.1429105 8.69502344,34.5489105 17.7980234,34.5489105 C26.9010234,34.5489105 34.3060234,27.1429105 34.3060234,18.0409105 C34.3060234,8.93791048 26.9010234,1.53291048 17.7980234,1.53291048 C8.69502344,1.53291048 1.28802344,8.93791048 1.28802344,18.0409105 Z" id="Shape-Copy-6" fill="#DFDFDA" sketch:type="MSShapeGroup"></path>
                        <g id="back57" transform="translate(17.326000, 17.397102) scale(-1, 1) translate(-17.326000, -17.397102) translate(9.826000, 11.397102)">
                            <mask id="mask-2" sketch:name="Clip 2" fill="white">
                                <use xlink:href="#path-1"></use>
                            </mask>
                            <g id="Clip-2"></g>
                            <path d="M5.602,3.199 L5.602,0 L0,5.602 L5.602,11.199 L5.602,7.922 C9.602,7.922 12.398,9.199 14.398,12 C13.602,8 11.199,4 5.602,3.199 L5.602,3.199 Z" id="Fill-1" fill="#464646" sketch:type="MSShapeGroup" mask="url(#mask-2)"></path>
                        </g>
                    </g>
                </g>
            </g>
        </g>
    </g>
</svg>