<?xml version="1.0" encoding="UTF-8" standalone="no"?>
<svg width="23px" height="19px" viewBox="0 0 23 19" version="1.1" xmlns="http://www.w3.org/2000/svg" xmlns:xlink="http://www.w3.org/1999/xlink" xmlns:sketch="http://www.bohemiancoding.com/sketch/ns">
    <!-- Generator: Sketch 3.3.3 (12072) - http://www.bohemiancoding.com/sketch -->
    <title>Check_Box_Blue</title>
    <desc>Created with Sketch.</desc>
    <defs></defs>
    <g id="Page-1" stroke="none" stroke-width="1" fill="none" fill-rule="evenodd" sketch:type="MSPage">
        <g id="Artboard-1" sketch:type="MSArtboardGroup" transform="translate(-989.000000, -3589.000000)" stroke="#60A0FF">
            <g id="Check_Box_Blue" sketch:type="MSLayerGroup" transform="translate(989.706844, 3588.331965)">
                <path d="M8.30151606,13.7018812 C13.1103465,8.89304753 16.7474791,5.25591953 21.3015161,0.701881156" id="Path-409-Copy-6" sketch:type="MSShapeGroup"></path>
                <path d="M8.66042085,13.622476 C6.75636966,11.7184219 5.78741254,10.749469 3.98424615,8.9463013" id="Path-409-Copy-5" sketch:type="MSShapeGroup"></path>
                <path d="M0.1,11.5392353 L0.1,2.97926982 C0.1,1.87006451 0.992622799,0.970875944 2.09508929,0.970875944 L16.1049107,0.970875944 C17.2067681,0.970875944 18.1,1.86744014 18.1,2.9711439 L18.1,4.67351266 L18.1,16.2733662 L18.1,16.9752919 C18.1,18.0774225 17.2073772,18.9708759 16.1049107,18.9708759 L2.09508929,18.9708759 C0.993231902,18.9708759 0.1,18.0762357 0.1,16.9806071 C0.1,16.9806071 0.1,18.4548668 0.1,15.6175345" id="Rectangle-58-Copy-3" sketch:type="MSShapeGroup" transform="translate(9.100000, 9.970876) rotate(-180.000000) translate(-9.100000, -9.970876) "></path>
            </g>
        </g>
    </g>
</svg>