<?xml version="1.0" encoding="UTF-8"?>
<svg width="30px" height="30px" viewBox="0 0 30 30" version="1.1" xmlns="http://www.w3.org/2000/svg" xmlns:xlink="http://www.w3.org/1999/xlink">
    <!-- Generator: Sketch 50.2 (55047) - http://www.bohemiancoding.com/sketch -->
    <title>icon-30-black-user</title>
    <desc>Created with Sketch.</desc>
    <defs>
        <path d="M7,19.9904843 L7,21.34676 C7.34997852,21.5603401 10.1461787,22.9970303 14.9999998,22.9970297 C19.8538208,22.9970291 22.6503877,21.5618669 23,21.3484037 L23,19.9904843 C23,18.274353 19.1929565,16.9397197 18.921579,16.8375547 C18.0700198,18.3658512 16.8110759,19.4999997 15,19.5 C13.1898838,19.5000003 11.9313147,18.3670536 11.0797752,16.8399846 C10.8111515,16.9409381 7,18.270874 7,19.9904843 Z M9.5,10.1786486 C9.5,7.31855998 11.9624339,5 15,5 C18.0375661,5 20.5,7.31855998 20.5,10.1786486 C20.5,11.3923328 20.2880077,13.2544967 19.7136187,14.9962194 C21.7165278,15.761389 25,17.0007324 25,19.9904843 L25,21.9976346 C25,23.1026902 20.6849365,24.9999993 15,25 C9.3150635,25.0000007 5,23.0989202 5,21.9976346 L5,19.9904843 C5,16.9904175 8.28530995,15.7624638 10.2872302,14.9987931 C9.71220115,13.2563313 9.5,11.3929306 9.5,10.1786486 Z M14.9999996,17.5 C16.9695787,17.4999997 18.5,13.8826335 18.5,10.1786486 C18.5,8.4509457 16.9590186,7 15,7 C13.0409814,7 11.5,8.4509457 11.5,10.1786486 C11.5,13.8826338 13.0304213,17.5000003 14.9999996,17.5 Z" id="path-1"></path>
    </defs>
    <g id="Icons" stroke="none" stroke-width="1" fill="none" fill-rule="evenodd">
        <g id="Icons/User">
            <mask id="mask-2" fill="white">
                <use xlink:href="#path-1"></use>
            </mask>
            <use id="Combined-Shape" fill="#000000" fill-rule="nonzero" xlink:href="#path-1"></use>
            <g id="Colors/Black" mask="url(#mask-2)" fill="#000000">
                <rect id="Color" x="0" y="0" width="30" height="30"></rect>
            </g>
        </g>
    </g>
</svg>