<?xml version="1.0" encoding="UTF-8"?>
<svg width="30px" height="30px" viewBox="0 0 30 30" version="1.1" xmlns="http://www.w3.org/2000/svg" xmlns:xlink="http://www.w3.org/1999/xlink">
    <!-- Generator: Sketch 49.3 (51167) - http://www.bohemiancoding.com/sketch -->
    <title>Icons/Heart</title>
    <desc>Created with Sketch.</desc>
    <defs>
        <path d="M15,10 C14.33,8.268 12.453,7 10.5,7 C7.957,7 6,8.932 6,11.5 C6,15.029 9.793,17.758 15,23 C20.207,17.758 24,15.029 24,11.5 C24,8.932 22.043,7 19.5,7 C17.545,7 15.67,8.268 15,10 Z" id="path-1"></path>
    </defs>
    <g id="Icons/Heart" stroke="none" stroke-width="1" fill="none" fill-rule="evenodd">
        <mask id="mask-2" fill="white">
            <use xlink:href="#path-1"></use>
        </mask>
        <path stroke="#000000" stroke-width="2" d="M14.9998363,8.09221572 C16.0940055,6.81493378 17.7700265,6 19.5,6 C22.6031635,6 25,8.38755646 25,11.5 C25,12.4948742 24.7506444,13.4524568 24.2617141,14.4157713 C23.6172567,15.6855128 22.5960196,16.9330574 20.8934948,18.6446154 C20.31383,19.2273557 16.8315065,22.5751571 15.7094713,23.7047343 L15,24.4189745 L14.2905287,23.7047343 C13.1684935,22.5751571 9.68616998,19.2273557 9.1065052,18.6446154 C7.40398035,16.9330574 6.38274327,15.6855128 5.7382859,14.4157713 C5.24935556,13.4524568 5,12.4948742 5,11.5 C5,8.38755646 7.39683645,6 10.5,6 C12.2288665,6 13.9053699,6.81514198 14.9998363,8.09221572 Z"></path>
    </g>
</svg>