<?xml version="1.0" encoding="UTF-8"?>
<svg width="16px" height="16px" viewBox="0 0 16 16" version="1.1" xmlns="http://www.w3.org/2000/svg" xmlns:xlink="http://www.w3.org/1999/xlink">
    <!-- Generator: Sketch 51.1 (57501) - http://www.bohemiancoding.com/sketch -->
    <title>Combined Shape</title>
    <desc>Created with Sketch.</desc>
    <defs></defs>
    <g id="Shopping-Bags" stroke="none" stroke-width="1" fill="none" fill-rule="evenodd">
        <g id="Flashblock/Error" transform="translate(-11.000000, -10.000000)" fill="#F13347">
            <path d="M11,18 C11,13.582 14.581,10 19,10 C23.418,10 27,13.582 27,18 C27,22.418 23.418,26 19,26 C14.581,26 11,22.418 11,18 Z M20.3085372,20.7056378 C20.6949576,21.0918011 21.3230155,21.0918011 21.7094358,20.7056378 C22.0968547,20.3194745 22.0968547,19.6918344 21.7094358,19.305671 L20.4033949,18.0004989 L21.7094358,16.694329 C22.0958562,16.3081656 22.0958562,15.6815234 21.7094358,15.2943622 C21.322017,14.9072011 20.6949576,14.9072011 20.3085372,15.2943622 L19.0024963,16.5995343 L17.6914628,15.2903709 C17.3050424,14.9032097 16.6769845,14.9032097 16.2905642,15.2903709 C15.9031453,15.6765342 15.9031453,16.3031765 16.2905642,16.6903376 L17.6005991,17.9995011 L16.2905642,19.3096624 C15.9031453,19.6968235 15.9031453,20.3234658 16.2905642,20.7096291 C16.6769845,21.0967903 17.3050424,21.0967903 17.6914628,20.7096291 L19.0024963,19.4004657 L20.3085372,20.7056378 Z" id="Combined-Shape"></path>
        </g>
    </g>
</svg>